<?xml version="1.0" standalone="no"?>
<!DOCTYPE svg PUBLIC "-//W3C//DTD SVG 20010904//EN"
 "http://www.w3.org/TR/2001/REC-SVG-20010904/DTD/svg10.dtd">
<svg version="1.0" xmlns="http://www.w3.org/2000/svg"
 width="1076.000000pt" height="1076.000000pt" viewBox="0 0 1076.000000 1076.000000"
 preserveAspectRatio="xMidYMid meet">
<metadata>
Created by potrace 1.11, written by Peter Selinger 2001-2013
</metadata>
<g transform="translate(0.000000,1076.000000) scale(0.100000,-0.100000)"
fill="#000000" stroke="none">
<path d="M6290 9980 c0 -6 -30 -10 -69 -10 -40 0 -84 -7 -106 -16 -28 -12 -55
-14 -105 -9 -50 5 -77 3 -105 -9 -20 -9 -46 -16 -56 -16 -11 0 -19 -5 -19 -11
0 -6 -8 -8 -19 -4 -41 13 -58 13 -58 0 0 -8 7 -11 15 -7 9 3 13 1 9 -5 -4 -6
-20 -16 -37 -21 -25 -9 -30 -8 -35 9 -7 21 -13 23 -34 10 -8 -5 -12 -18 -8
-30 4 -18 -3 -26 -44 -46 -40 -21 -49 -23 -49 -10 0 26 -27 28 -74 5 -41 -19
-45 -24 -40 -50 5 -22 1 -31 -15 -39 -21 -12 -27 -3 -22 37 2 15 -1 15 -33 1
-21 -10 -23 -15 -14 -35 11 -25 5 -54 -12 -54 -5 0 -10 8 -10 18 0 9 -4 23 -9
31 -8 12 -18 8 -53 -21 -83 -70 -122 -108 -109 -108 7 0 11 -6 8 -12 -2 -7
-10 -12 -17 -10 -6 1 -20 -9 -31 -22 -11 -14 -26 -23 -34 -20 -15 6 -191 -104
-255 -158 -87 -75 -150 -142 -139 -148 7 -5 8 -10 1 -14 -6 -3 -12 -1 -14 6
-5 13 -155 -108 -226 -182 -24 -25 -88 -106 -143 -180 -54 -74 -125 -163 -156
-197 -32 -35 -80 -102 -107 -150 -76 -137 -173 -278 -230 -335 -72 -73 -137
-160 -181 -243 -20 -38 -47 -80 -58 -93 -18 -20 -19 -24 -7 -32 8 -5 22 -10
31 -10 14 0 29 -19 29 -35 0 -6 -64 7 -81 16 -13 6 -25 -3 -55 -39 -22 -25
-59 -70 -84 -98 -98 -114 -123 -147 -146 -195 -34 -71 -77 -108 -304 -263 -97
-67 -190 -111 -293 -141 -61 -17 -70 -19 -172 -31 -57 -6 -74 -13 -170 -67
-22 -13 -71 -40 -110 -61 -38 -21 -79 -46 -90 -55 -11 -9 -42 -28 -70 -41 -27
-13 -81 -43 -120 -68 -38 -25 -95 -59 -125 -75 -73 -40 -177 -109 -220 -148
-19 -17 -87 -67 -150 -110 -63 -43 -131 -93 -150 -111 -56 -54 -148 -121 -244
-178 -61 -37 -128 -91 -215 -174 -225 -216 -317 -310 -346 -356 -27 -41 -140
-188 -155 -200 -4 -3 -49 -57 -101 -121 -73 -92 -110 -149 -169 -265 l-75
-148 3 -133 c2 -73 5 -143 7 -155 3 -13 9 -48 15 -78 17 -92 19 -102 30 -135
6 -18 13 -43 15 -56 15 -79 13 -77 89 -118 78 -42 150 -64 219 -66 40 -2 95
-9 122 -17 34 -10 83 -14 150 -12 90 3 102 6 118 26 73 91 104 119 202 184 63
42 141 104 180 145 39 40 93 87 121 105 45 29 95 77 205 196 37 40 82 62 110
53 26 -9 57 -56 52 -80 -2 -11 -4 -33 -4 -50 -1 -73 -100 -324 -172 -436 -61
-95 -162 -317 -202 -444 -38 -122 -92 -268 -125 -340 -81 -178 -111 -269 -112
-340 -2 -146 0 -159 41 -222 21 -32 51 -90 66 -129 25 -62 71 -142 107 -184
29 -35 88 -68 168 -95 47 -15 93 -34 103 -41 11 -7 31 -9 50 -6 65 14 219 6
269 -13 8 -3 35 1 59 10 80 29 128 43 133 38 2 -2 7 5 11 17 7 21 32 22 27 1
-1 -6 1 -11 5 -11 15 0 158 43 163 49 3 3 24 19 48 35 48 33 83 40 129 25 25
-8 39 -7 62 6 38 19 34 19 72 0 55 -29 58 -72 13 -170 -58 -126 -74 -192 -70
-293 2 -54 8 -117 14 -142 6 -25 13 -62 16 -82 11 -69 25 -125 52 -197 23 -62
36 -80 91 -129 68 -61 139 -105 188 -116 17 -3 95 -9 173 -12 118 -4 153 -2
195 12 29 9 58 22 66 28 8 6 15 9 15 7 2 -6 91 21 126 39 19 10 58 43 85 74
28 31 77 75 110 98 32 23 66 49 75 58 8 8 29 26 45 40 17 14 41 42 55 62 21
30 120 146 156 182 25 26 177 233 184 251 4 11 34 56 67 100 32 44 94 145 137
225 42 79 92 165 111 190 34 47 55 82 113 190 46 86 87 146 114 165 33 23 75
19 104 -10 22 -22 25 -33 23 -78 -5 -112 -72 -266 -176 -405 -66 -88 -241
-418 -279 -525 -11 -31 -13 -84 -8 -250 3 -116 7 -214 9 -217 2 -3 6 -26 10
-50 4 -25 15 -65 26 -90 35 -84 121 -315 127 -343 8 -32 153 -183 186 -193 11
-3 44 -18 71 -34 28 -15 79 -32 115 -39 36 -6 75 -13 86 -15 69 -14 121 -8
171 17 29 15 74 34 100 43 130 42 203 81 353 193 177 132 188 143 274 266 72
102 134 174 219 255 92 87 180 230 212 345 9 33 27 94 40 135 14 41 26 87 29
101 12 70 41 152 63 175 20 22 30 25 61 21 51 -9 71 -33 94 -118 27 -96 27
-172 2 -309 -6 -31 -6 -118 0 -147 13 -65 17 -155 7 -185 -16 -49 -19 -93 -10
-142 4 -24 10 -79 14 -122 6 -86 13 -147 24 -209 4 -22 8 -72 10 -110 2 -84
13 -121 57 -194 19 -31 34 -64 34 -73 0 -10 9 -25 20 -35 10 -10 32 -37 47
-60 33 -49 93 -95 148 -113 22 -7 52 -21 67 -32 57 -39 127 -22 259 65 48 31
99 59 113 63 42 10 108 84 200 223 46 69 95 137 107 151 29 30 34 39 97 165
53 105 102 227 102 252 0 29 32 123 48 143 37 44 112 28 141 -29 10 -20 24
-74 32 -121 7 -47 14 -87 14 -90 1 -3 5 -23 9 -45 4 -22 19 -65 33 -95 27 -58
63 -149 94 -238 10 -29 26 -65 37 -80 10 -15 27 -44 37 -66 29 -55 92 -124
134 -145 58 -28 156 -10 229 42 125 91 108 84 197 82 98 -2 114 8 146 86 15
39 22 82 24 153 3 92 6 104 44 181 23 45 41 86 41 92 0 30 62 143 99 180 43
43 106 78 153 87 15 2 47 18 70 34 54 37 106 52 183 52 55 0 64 3 105 37 31
26 57 61 82 113 21 41 49 95 62 120 39 71 61 127 94 240 43 145 94 368 107
470 15 110 22 424 11 475 -22 101 -43 208 -56 284 -9 52 -41 173 -79 296 -11
33 -29 94 -42 135 -22 74 -34 100 -98 210 -53 93 -70 135 -77 191 -4 30 -24
93 -45 140 -21 47 -48 128 -59 180 -12 52 -36 124 -55 161 -21 41 -32 74 -28
85 10 29 55 73 75 73 10 0 66 -24 125 -54 187 -94 241 -104 401 -79 143 23
192 23 253 3 62 -21 192 -32 227 -19 12 5 25 17 29 26 4 10 22 40 40 67 20 29
33 61 33 79 0 17 -20 93 -45 167 -51 150 -86 205 -180 276 -27 20 -75 56 -105
79 -63 48 -122 74 -235 104 -44 12 -137 51 -206 86 -69 35 -148 69 -175 75
-87 20 -84 20 -149 38 -22 6 -56 14 -75 17 -59 10 -102 25 -181 65 -41 21 -99
45 -127 54 -58 17 -123 49 -163 81 -14 11 -45 27 -70 35 -50 16 -116 56 -163
97 -18 15 -54 39 -81 52 -49 24 -191 160 -294 280 -25 30 -64 71 -86 90 -57
51 -105 102 -105 112 0 4 -14 31 -30 59 -27 46 -77 165 -95 228 -4 13 -14 22
-26 22 -10 0 -19 6 -20 13 -1 6 -2 26 -4 42 -1 17 -16 55 -33 85 -17 30 -37
75 -45 100 -9 25 -22 61 -30 80 -9 20 -18 55 -22 80 -4 25 -9 49 -12 54 -3 5
-7 30 -9 55 -2 25 -7 64 -11 86 -5 22 -8 51 -7 65 1 14 -4 48 -11 75 -15 53
-22 118 -30 262 -3 49 -10 111 -14 138 -5 28 -7 81 -4 117 3 38 0 82 -6 101
-18 52 -21 75 -27 167 -2 47 -9 103 -14 125 -5 22 -11 63 -14 90 -13 119 -37
169 -138 286 -13 14 -38 44 -56 67 -19 23 -39 39 -47 36 -7 -3 -19 5 -26 17
-7 14 -8 24 -2 26 5 2 1 29 -10 64 -15 43 -27 63 -43 69 -29 11 -38 28 -25 44
6 7 8 22 4 31 -6 16 -7 16 -15 -5 -6 -17 -12 -20 -20 -12 -8 8 -7 19 2 42 11
27 11 33 -1 41 -24 15 -56 10 -70 -11 -12 -17 -16 -18 -33 -5 -17 13 -17 16
18 58 20 24 36 49 36 54 0 13 -88 104 -115 119 -16 10 -18 14 -7 25 6 7 12 18
12 23 0 6 -4 5 -9 -3 -14 -21 -126 -25 -142 -5 -10 13 -10 20 0 36 11 17 10
22 -1 29 -20 13 -58 11 -59 -3 0 -7 -9 6 -20 30 -19 45 -45 49 -37 7 5 -23 4
-23 -29 -7 -36 17 -38 23 -23 52 9 16 5 22 -19 35 -37 19 -41 19 -41 0 0 -18
-12 -19 -28 -3 -14 14 -125 30 -200 28 l-52 -1 16 41 c9 22 14 44 10 47 -4 4
-22 8 -41 10 -31 2 -35 -1 -41 -25 -14 -65 -11 -63 -55 -39 -35 19 -39 24 -34
49 6 25 4 28 -19 28 -14 0 -25 -3 -25 -7 4 -25 -3 -43 -17 -43 -18 0 -77 31
-82 43 -5 11 -72 8 -72 -3z m930 -375 c-12 -15 -30 -12 -30 5 0 8 31 19 39 13
2 -1 -2 -9 -9 -18z m81 -22 c34 -20 41 -36 30 -66 -12 -32 -38 -50 -58 -43
-12 5 -14 9 -5 18 19 19 14 29 -13 22 -31 -8 -32 5 -2 31 20 18 20 20 4 23
-14 3 -16 7 -6 18 14 18 15 18 50 -3z m-2271 -167 c0 -7 -7 -19 -15 -26 -16
-13 -20 -3 -9 24 8 20 24 21 24 2z m-339 -268 c-5 -15 -15 -29 -20 -33 -16 -9
-14 43 2 60 18 20 29 2 18 -27z m-391 -428 c0 -5 -5 -10 -11 -10 -5 0 -7 5 -4
10 3 6 8 10 11 10 2 0 4 -4 4 -10z m6357 -3772 c-3 -8 -6 -5 -6 6 -1 11 2 17
5 13 3 -3 4 -12 1 -19z m-2127 -820 c8 -18 2 -46 -25 -123 -28 -80 -34 -91
-30 -55 3 25 7 54 9 65 2 11 7 46 11 78 8 60 19 72 35 35z m-5320 -2323 c0 -8
-12 -18 -27 -21 -40 -10 -92 -51 -99 -79 -9 -35 -27 -19 -20 18 8 40 23 57 71
78 49 23 75 24 75 4z m-44 -122 c-10 -11 -25 18 -18 35 4 13 8 11 15 -6 6 -12
7 -25 3 -29z m74 -58 c0 -21 -5 -25 -28 -25 -41 0 -46 11 -15 32 37 24 43 23
43 -7z"/>
<path d="M7251 9686 c-8 -9 -4 -12 14 -12 27 0 33 11 11 19 -8 3 -19 0 -25 -7z"/>
<path d="M10470 3181 c0 -39 14 -48 17 -10 1 15 -2 31 -7 34 -6 4 -10 -7 -10
-24z"/>
<path d="M910 2970 c0 -11 2 -20 4 -20 2 0 6 9 9 20 3 11 1 20 -4 20 -5 0 -9
-9 -9 -20z"/>
</g>
</svg>
